<svg width="1440" height="331" viewBox="0 0 1440 331" fill="none" xmlns="http://www.w3.org/2000/svg">
<ellipse cx="1188.8" cy="137.85" rx="137.802" ry="137.85" fill="url(#paint0_linear_55_8626)"/>
<path d="M1493.7 114.323C1472.58 100.705 1420.54 96.5748 1378.17 100.489C1335.79 104.403 1300.41 114.427 1265.14 123.643C1229.87 132.86 1191.22 141.796 1147.5 142.922C1097.17 144.226 1048.96 134.916 998.512 134.531C934.224 134.033 872.84 148.028 809.028 145.156C715.777 140.97 660.836 103.652 571.123 93.6746C487.087 84.2888 399.197 101.286 325.827 118.594C252.457 135.901 171.246 155.105 84.1205 150.506C18.1166 147.023 -39.8084 128.533 -56.4941 105.538V317H1472.39L1493.7 114.323Z" fill="#005C79"/>
<path d="M-68 191.359C-44.0526 172.874 32.3355 160.498 104.096 163.483C156.429 165.672 201.185 174.75 251.921 178.844C348.089 186.593 449.453 175.655 543.89 166.438C638.326 157.221 748.241 149.844 834.722 163.592C884.917 171.575 925.208 186.367 983.547 186.944C1022.3 187.301 1058.07 180.952 1096.79 180.325C1145.17 179.551 1188.41 187.622 1233.09 192.73C1335.05 204.289 1459.92 199.532 1546 180.799V306H-41.9149L-68 191.359Z" fill="#337894"/>
<path d="M1472.08 210.164C1398.69 196.941 1312.32 192.876 1229.94 198.767C1168.9 203.231 1110.3 213.157 1047.76 211.901C988.833 210.723 937.087 199.816 885.994 190.458C834.901 181.099 775.786 172.756 718.494 177.255C656.986 182.089 614.676 200.41 555.344 207.437C493.075 214.808 423.193 208.572 362.447 200.022C301.701 191.473 242.478 180.489 176.429 178.037C85.0653 174.657 -10.5131 189.847 -56.4941 215.023V306H1493.7L1472.08 210.164Z" fill="#80C5E8"/>
<path d="M-56.4941 245.184C-3.17973 254.071 64.9427 252.443 123.662 246.857C182.38 241.27 236.1 232.132 294.522 226.265C352.943 220.399 420.417 218.158 475.191 226.318C525.992 233.889 560.851 249.605 616.975 253.132C661.67 255.941 707.337 250.104 746.005 243.2C784.674 236.296 822.045 228.06 866.767 225.296C919.162 222.049 973.558 226.811 1022.76 232.867C1071.97 238.923 1120.04 246.228 1173.22 248.492C1222.57 250.589 1272.93 248.136 1322.76 248.946C1372.59 249.756 1426.66 255.002 1449.77 267.41V331H-52.4408L-56.4941 245.184Z" fill="#D7F5F5"/>
<defs>
<linearGradient id="paint0_linear_55_8626" x1="1188.8" y1="1.27184e-08" x2="1189" y2="218.5" gradientUnits="userSpaceOnUse">
<stop stop-color="#FFCE50"/>
<stop offset="0.208333" stop-color="#FF5C00"/>
<stop offset="0.567708" stop-color="#944013"/>
<stop offset="0.791667" stop-color="#150F0C"/>
</linearGradient>
</defs>
</svg>
