<svg width="1440" height="75" viewBox="0 0 1440 75" fill="none" xmlns="http://www.w3.org/2000/svg">
<g clip-path="url(#clip0_250_10110)">
<rect width="1440" height="75" fill="#FCDAB7"/>
<path d="M721.106 4L721.147 4.1211C722.357 7.63 725.084 10.406 728.572 11.6765C725.084 12.9469 722.357 15.7229 721.147 19.2318L721.106 19.3529C719.873 15.7765 717.059 12.9691 713.479 11.7452L713.278 11.6765L713.479 11.6077C717.059 10.3838 719.873 7.57644 721.106 4Z" fill="black"/>
<path fill-rule="evenodd" clip-rule="evenodd" d="M690.011 32.9532H695.287C695.082 31.0646 695.311 27.2873 697.863 27.2873H718.23V37.8723H709.642V43.415H732.34V37.8723H723.751V27.2873H742.769C743.955 27.2052 746.597 28.4417 745.713 33.1715H750.989C751.357 30.3105 750.376 23.1946 745.222 22.3604C740.428 21.5843 711.196 21.6214 697.127 21.9909C694.755 22.1962 690.011 24.676 690.011 32.9532Z" fill="black"/>
<path d="M664 54.1224V52.0622H671.975V54.1224H669.521V61.7576H666.699V54.1224H664Z" fill="black"/>
<path d="M682.036 61.7576H679.337L683.631 52.0622H685.594L689.765 61.7576H686.821L684.367 56.1827L682.036 61.7576Z" fill="black"/>
<path d="M699.336 61.9999V52.0622H702.035V59.4549H705.838V61.9999H699.336Z" fill="black"/>
<path d="M714.304 61.6364L718.476 51.8198H720.561L724.978 61.6364H721.666L719.457 56.5463L717.371 61.6364H714.304Z" fill="black"/>
<path d="M739.456 54.7284L740.56 53.2741C740.069 52.3046 738.106 51.8198 736.634 51.8198C735.162 51.8198 733.444 52.9105 733.444 55.2132C733.444 57.5158 738.474 58.243 738.106 59.3337C737.812 60.2063 735.775 59.5357 734.794 59.0913L733.444 60.788C735.53 61.798 739.922 63.018 740.806 59.8185C741.91 55.8191 736.389 56.0615 736.634 54.7284C736.83 53.6619 738.597 54.284 739.456 54.7284Z" fill="black"/>
<path d="M756.02 54.7284L757.492 53.2741C754.425 51.335 754.547 52.0622 754.179 51.8198C753.811 51.5774 750.621 52.0622 750.13 54.7284C749.64 57.3946 754.793 58.243 754.547 59.3337C754.351 60.2063 752.421 59.3741 751.48 58.8489L749.885 60.788C751.481 61.4666 756.289 63.1264 757.492 59.8185C759.077 55.4603 752.83 56.6675 752.83 54.7284C752.83 53.7162 755.079 54.3244 756.02 54.7284Z" fill="black"/>
<path d="M766.326 61.5152L770.62 51.8198H772.583L777 61.5152H773.687L771.602 56.3039L769.27 61.5152H766.326Z" fill="black"/>
<path d="M491.911 45.4836C509.644 50.3014 529.233 37.7097 542.367 35.329C568.273 29.6875 579.62 43.4414 592.983 49.7598C598.206 51.8187 603.861 52.5674 609.447 51.9395C615.032 51.3116 620.375 49.3266 625 46.1606C619.685 53.0093 606.459 58.4251 592.357 54.8823C579.188 51.4748 568.386 35.9721 541.502 41.8054C527.229 44.9984 506.423 53.7991 491.911 45.4836Z" fill="#30A2FF"/>
<path d="M461 38.2856C475.936 47.0799 492.445 54.5186 509.819 53.3795C522.146 52.4567 543.542 47.1141 554.878 42.7397C546.333 50.1442 526.395 58.6879 508.531 59.9979C499.503 60.0703 490.569 58.1638 482.357 54.4127C474.145 50.6615 466.855 45.1567 461 38.2856Z" fill="#30A2FF"/>
<path d="M531.408 36.3778C542.019 29.723 553.734 22.2165 573.533 28.6555C591.077 34.6971 599.798 39.0238 608.69 36.0371C622.352 31.4037 617.798 19.0027 609.441 19.332C604.773 19.4456 600.914 24.0335 604.887 29.8933C595.779 22.0235 608.963 10.8262 618.231 18.662C624.424 23.8632 624.105 34.3109 614.929 39.7733C592.705 52.8103 573.624 26.3729 546.903 31.6763C540.972 32.8233 535.291 35.2535 531.408 36.3778Z" fill="#30A2FF"/>
<path d="M389.911 45.4836C407.644 50.3014 427.233 37.7097 440.367 35.329C466.273 29.6875 477.62 43.4414 490.983 49.7598C496.206 51.8187 501.861 52.5674 507.447 51.9395C513.032 51.3116 518.375 49.3266 523 46.1606C517.685 53.0093 504.459 58.4251 490.357 54.8823C477.188 51.4748 466.386 35.9721 439.502 41.8054C425.229 44.9984 404.423 53.7991 389.911 45.4836Z" fill="#30A2FF"/>
<path d="M359 38.2856C373.936 47.0799 390.445 54.5186 407.819 53.3795C420.146 52.4567 441.542 47.1141 452.878 42.7397C444.333 50.1442 424.395 58.6879 406.531 59.9979C397.503 60.0703 388.569 58.1638 380.357 54.4127C372.145 50.6615 364.855 45.1567 359 38.2856Z" fill="#30A2FF"/>
<path d="M429.408 36.3778C440.019 29.723 451.734 22.2165 471.533 28.6555C489.077 34.6971 497.798 39.0238 506.69 36.0371C520.352 31.4037 515.798 19.0027 507.441 19.332C502.773 19.4456 498.914 24.0335 502.887 29.8933C493.779 22.0235 506.963 10.8262 516.231 18.662C522.424 23.8632 522.105 34.3109 512.929 39.7733C490.705 52.8103 471.624 26.3729 444.903 31.6763C438.972 32.8233 433.291 35.2535 429.408 36.3778Z" fill="#30A2FF"/>
<path d="M287.911 45.4836C305.644 50.3014 325.233 37.7097 338.367 35.329C364.273 29.6875 375.62 43.4414 388.983 49.7598C394.206 51.8187 399.861 52.5674 405.447 51.9395C411.032 51.3116 416.375 49.3266 421 46.1606C415.685 53.0093 402.459 58.4251 388.357 54.8823C375.188 51.4748 364.386 35.9721 337.502 41.8054C323.229 44.9984 302.423 53.7991 287.911 45.4836Z" fill="#30A2FF"/>
<path d="M257 38.2856C271.936 47.0799 288.445 54.5186 305.819 53.3795C318.146 52.4567 339.542 47.1141 350.878 42.7397C342.333 50.1442 322.395 58.6879 304.531 59.9979C295.503 60.0703 286.569 58.1638 278.357 54.4127C270.145 50.6615 262.855 45.1567 257 38.2856Z" fill="#30A2FF"/>
<path d="M327.408 36.3778C338.019 29.723 349.734 22.2165 369.533 28.6555C387.077 34.6971 395.798 39.0238 404.69 36.0371C418.352 31.4037 413.798 19.0027 405.441 19.332C400.773 19.4456 396.914 24.0335 400.887 29.8933C391.779 22.0235 404.963 10.8262 414.231 18.662C420.424 23.8632 420.105 34.3109 410.929 39.7733C388.705 52.8103 369.624 26.3729 342.903 31.6763C336.972 32.8233 331.291 35.2535 327.408 36.3778Z" fill="#30A2FF"/>
<path d="M185.911 45.4836C203.644 50.3014 223.233 37.7097 236.367 35.329C262.273 29.6875 273.62 43.4414 286.983 49.7598C292.206 51.8187 297.861 52.5674 303.447 51.9395C309.032 51.3116 314.375 49.3266 319 46.1606C313.685 53.0093 300.459 58.4251 286.357 54.8823C273.188 51.4748 262.386 35.9721 235.502 41.8054C221.229 44.9984 200.423 53.7991 185.911 45.4836Z" fill="#30A2FF"/>
<path d="M155 38.2856C169.936 47.0799 186.445 54.5186 203.819 53.3795C216.146 52.4567 237.542 47.1141 248.878 42.7397C240.333 50.1442 220.395 58.6879 202.531 59.9979C193.503 60.0703 184.569 58.1638 176.357 54.4127C168.145 50.6615 160.855 45.1567 155 38.2856Z" fill="#30A2FF"/>
<path d="M225.408 36.3778C236.019 29.723 247.734 22.2165 267.533 28.6555C285.077 34.6971 293.798 39.0238 302.69 36.0371C316.352 31.4037 311.798 19.0027 303.441 19.332C298.773 19.4456 294.914 24.0335 298.887 29.8933C289.779 22.0235 302.963 10.8262 312.231 18.662C318.424 23.8632 318.105 34.3109 308.929 39.7733C286.705 52.8103 267.624 26.3729 240.903 31.6763C234.972 32.8233 229.291 35.2535 225.408 36.3778Z" fill="#30A2FF"/>
<path d="M83.9111 45.4836C101.644 50.3014 121.233 37.7097 134.367 35.329C160.273 29.6875 171.62 43.4414 184.983 49.7598C190.206 51.8187 195.861 52.5674 201.447 51.9395C207.032 51.3116 212.375 49.3266 217 46.1606C211.685 53.0093 198.459 58.4251 184.357 54.8823C171.188 51.4748 160.386 35.9721 133.502 41.8054C119.229 44.9984 98.4231 53.7991 83.9111 45.4836Z" fill="#30A2FF"/>
<path d="M53 38.2856C67.9361 47.0799 84.4445 54.5186 101.819 53.3795C114.146 52.4567 135.542 47.1141 146.878 42.7397C138.333 50.1442 118.395 58.6879 100.531 59.9979C91.5034 60.0703 82.5692 58.1638 74.3574 54.4127C66.1455 50.6615 58.8554 45.1567 53 38.2856Z" fill="#30A2FF"/>
<path d="M123.408 36.3778C134.019 29.723 145.734 22.2165 165.533 28.6555C183.077 34.6971 191.798 39.0238 200.69 36.0371C214.352 31.4037 209.798 19.0027 201.441 19.332C196.773 19.4456 192.914 24.0335 196.887 29.8933C187.779 22.0235 200.963 10.8262 210.231 18.662C216.424 23.8632 216.105 34.3109 206.929 39.7733C184.705 52.8103 165.624 26.3729 138.903 31.6763C132.972 32.8233 127.291 35.2535 123.408 36.3778Z" fill="#30A2FF"/>
<path d="M-18.0889 45.4836C-0.355806 50.3014 19.2325 37.7097 32.3673 35.329C58.2726 29.6875 69.6204 43.4414 82.9827 49.7598C88.2061 51.8187 93.8614 52.5674 99.4467 51.9395C105.032 51.3116 110.375 49.3266 115 46.1606C109.685 53.0093 96.459 58.4251 82.3567 54.8823C69.1878 51.4748 58.3864 35.9721 31.5022 41.8054C17.2293 44.9984 -3.5769 53.7991 -18.0889 45.4836Z" fill="#30A2FF"/>
<path d="M-49 38.2856C-34.0639 47.0799 -17.5555 54.5186 -0.181244 53.3795C12.1459 52.4567 33.5419 47.1141 44.8778 42.7397C36.3331 50.1442 16.3955 58.6879 -1.46865 59.9979C-10.4966 60.0703 -19.4308 58.1638 -27.6426 54.4127C-35.8545 50.6615 -43.1446 45.1567 -49 38.2856Z" fill="#30A2FF"/>
<path d="M21.4082 36.3778C32.0191 29.723 43.7343 22.2165 63.5329 28.6555C81.0773 34.6971 89.7982 39.0238 98.6899 36.0371C112.352 31.4037 107.798 19.0027 99.4414 19.332C94.7735 19.4456 90.914 24.0335 94.8873 29.8933C85.7793 22.0235 98.9632 10.8262 108.231 18.662C114.424 23.8632 114.105 34.3109 104.929 39.7733C82.7053 52.8103 63.624 26.3729 36.9033 31.6763C30.9716 32.8233 25.2905 35.2535 21.4082 36.3778Z" fill="#30A2FF"/>
<path d="M949.089 45.4836C931.356 50.3014 911.767 37.7097 898.633 35.329C872.727 29.6875 861.38 43.4414 848.017 49.7598C842.794 51.8187 837.139 52.5674 831.553 51.9395C825.968 51.3116 820.625 49.3266 816 46.1606C821.315 53.0093 834.541 58.4251 848.643 54.8823C861.812 51.4748 872.614 35.9721 899.498 41.8054C913.771 44.9984 934.577 53.7991 949.089 45.4836Z" fill="#30A2FF"/>
<path d="M980 38.2856C965.064 47.0799 948.555 54.5186 931.181 53.3795C918.854 52.4567 897.458 47.1141 886.122 42.7397C894.667 50.1442 914.605 58.6879 932.469 59.9979C941.497 60.0703 950.431 58.1638 958.643 54.4127C966.855 50.6615 974.145 45.1567 980 38.2856Z" fill="#30A2FF"/>
<path d="M909.592 36.3778C898.981 29.723 887.266 22.2165 867.467 28.6555C849.923 34.6971 841.202 39.0238 832.31 36.0371C818.648 31.4037 823.202 19.0027 831.559 19.332C836.227 19.4456 840.086 24.0335 836.113 29.8933C845.221 22.0235 832.037 10.8262 822.769 18.662C816.576 23.8632 816.895 34.3109 826.071 39.7733C848.295 52.8103 867.376 26.3729 894.097 31.6763C900.028 32.8233 905.709 35.2535 909.592 36.3778Z" fill="#30A2FF"/>
<path d="M1051.09 45.4836C1033.36 50.3014 1013.77 37.7097 1000.63 35.329C974.727 29.6875 963.38 43.4414 950.017 49.7598C944.794 51.8187 939.139 52.5674 933.553 51.9395C927.968 51.3116 922.625 49.3266 918 46.1606C923.315 53.0093 936.541 58.4251 950.643 54.8823C963.812 51.4748 974.614 35.9721 1001.5 41.8054C1015.77 44.9984 1036.58 53.7991 1051.09 45.4836Z" fill="#30A2FF"/>
<path d="M1082 38.2856C1067.06 47.0799 1050.56 54.5186 1033.18 53.3795C1020.85 52.4567 999.458 47.1141 988.122 42.7397C996.667 50.1442 1016.6 58.6879 1034.47 59.9979C1043.5 60.0703 1052.43 58.1638 1060.64 54.4127C1068.85 50.6615 1076.14 45.1567 1082 38.2856Z" fill="#30A2FF"/>
<path d="M1011.59 36.3778C1000.98 29.723 989.266 22.2165 969.467 28.6555C951.923 34.6971 943.202 39.0238 934.31 36.0371C920.648 31.4037 925.202 19.0027 933.559 19.332C938.227 19.4456 942.086 24.0335 938.113 29.8933C947.221 22.0235 934.037 10.8262 924.769 18.662C918.576 23.8632 918.895 34.3109 928.071 39.7733C950.295 52.8103 969.376 26.3729 996.097 31.6763C1002.03 32.8233 1007.71 35.2535 1011.59 36.3778Z" fill="#30A2FF"/>
<path d="M1153.09 45.4836C1135.36 50.3014 1115.77 37.7097 1102.63 35.329C1076.73 29.6875 1065.38 43.4414 1052.02 49.7598C1046.79 51.8187 1041.14 52.5674 1035.55 51.9395C1029.97 51.3116 1024.63 49.3266 1020 46.1606C1025.32 53.0093 1038.54 58.4251 1052.64 54.8823C1065.81 51.4748 1076.61 35.9721 1103.5 41.8054C1117.77 44.9984 1138.58 53.7991 1153.09 45.4836Z" fill="#30A2FF"/>
<path d="M1184 38.2856C1169.06 47.0799 1152.56 54.5186 1135.18 53.3795C1122.85 52.4567 1101.46 47.1141 1090.12 42.7397C1098.67 50.1442 1118.6 58.6879 1136.47 59.9979C1145.5 60.0703 1154.43 58.1638 1162.64 54.4127C1170.85 50.6615 1178.14 45.1567 1184 38.2856Z" fill="#30A2FF"/>
<path d="M1113.59 36.3778C1102.98 29.723 1091.27 22.2165 1071.47 28.6555C1053.92 34.6971 1045.2 39.0238 1036.31 36.0371C1022.65 31.4037 1027.2 19.0027 1035.56 19.332C1040.23 19.4456 1044.09 24.0335 1040.11 29.8933C1049.22 22.0235 1036.04 10.8262 1026.77 18.662C1020.58 23.8632 1020.89 34.3109 1030.07 39.7733C1052.29 52.8103 1071.38 26.3729 1098.1 31.6763C1104.03 32.8233 1109.71 35.2535 1113.59 36.3778Z" fill="#30A2FF"/>
<path d="M1255.09 45.4836C1237.36 50.3014 1217.77 37.7097 1204.63 35.329C1178.73 29.6875 1167.38 43.4414 1154.02 49.7598C1148.79 51.8187 1143.14 52.5674 1137.55 51.9395C1131.97 51.3116 1126.63 49.3266 1122 46.1606C1127.32 53.0093 1140.54 58.4251 1154.64 54.8823C1167.81 51.4748 1178.61 35.9721 1205.5 41.8054C1219.77 44.9984 1240.58 53.7991 1255.09 45.4836Z" fill="#30A2FF"/>
<path d="M1286 38.2856C1271.06 47.0799 1254.56 54.5186 1237.18 53.3795C1224.85 52.4567 1203.46 47.1141 1192.12 42.7397C1200.67 50.1442 1220.6 58.6879 1238.47 59.9979C1247.5 60.0703 1256.43 58.1638 1264.64 54.4127C1272.85 50.6615 1280.14 45.1567 1286 38.2856Z" fill="#30A2FF"/>
<path d="M1215.59 36.3778C1204.98 29.723 1193.27 22.2165 1173.47 28.6555C1155.92 34.6971 1147.2 39.0238 1138.31 36.0371C1124.65 31.4037 1129.2 19.0027 1137.56 19.332C1142.23 19.4456 1146.09 24.0335 1142.11 29.8933C1151.22 22.0235 1138.04 10.8262 1128.77 18.662C1122.58 23.8632 1122.89 34.3109 1132.07 39.7733C1154.29 52.8103 1173.38 26.3729 1200.1 31.6763C1206.03 32.8233 1211.71 35.2535 1215.59 36.3778Z" fill="#30A2FF"/>
<path d="M1357.09 45.4836C1339.36 50.3014 1319.77 37.7097 1306.63 35.329C1280.73 29.6875 1269.38 43.4414 1256.02 49.7598C1250.79 51.8187 1245.14 52.5674 1239.55 51.9395C1233.97 51.3116 1228.63 49.3266 1224 46.1606C1229.32 53.0093 1242.54 58.4251 1256.64 54.8823C1269.81 51.4748 1280.61 35.9721 1307.5 41.8054C1321.77 44.9984 1342.58 53.7991 1357.09 45.4836Z" fill="#30A2FF"/>
<path d="M1388 38.2856C1373.06 47.0799 1356.56 54.5186 1339.18 53.3795C1326.85 52.4567 1305.46 47.1141 1294.12 42.7397C1302.67 50.1442 1322.6 58.6879 1340.47 59.9979C1349.5 60.0703 1358.43 58.1638 1366.64 54.4127C1374.85 50.6615 1382.14 45.1567 1388 38.2856Z" fill="#30A2FF"/>
<path d="M1317.59 36.3778C1306.98 29.723 1295.27 22.2165 1275.47 28.6555C1257.92 34.6971 1249.2 39.0238 1240.31 36.0371C1226.65 31.4037 1231.2 19.0027 1239.56 19.332C1244.23 19.4456 1248.09 24.0335 1244.11 29.8933C1253.22 22.0235 1240.04 10.8262 1230.77 18.662C1224.58 23.8632 1224.89 34.3109 1234.07 39.7733C1256.29 52.8103 1275.38 26.3729 1302.1 31.6763C1308.03 32.8233 1313.71 35.2535 1317.59 36.3778Z" fill="#30A2FF"/>
<path d="M1459.09 45.4836C1441.36 50.3014 1421.77 37.7097 1408.63 35.329C1382.73 29.6875 1371.38 43.4414 1358.02 49.7598C1352.79 51.8187 1347.14 52.5674 1341.55 51.9395C1335.97 51.3116 1330.63 49.3266 1326 46.1606C1331.32 53.0093 1344.54 58.4251 1358.64 54.8823C1371.81 51.4748 1382.61 35.9721 1409.5 41.8054C1423.77 44.9984 1444.58 53.7991 1459.09 45.4836Z" fill="#30A2FF"/>
<path d="M1490 38.2856C1475.06 47.0799 1458.56 54.5186 1441.18 53.3795C1428.85 52.4567 1407.46 47.1141 1396.12 42.7397C1404.67 50.1442 1424.6 58.6879 1442.47 59.9979C1451.5 60.0703 1460.43 58.1638 1468.64 54.4127C1476.85 50.6615 1484.14 45.1567 1490 38.2856Z" fill="#30A2FF"/>
<path d="M1419.59 36.3778C1408.98 29.723 1397.27 22.2165 1377.47 28.6555C1359.92 34.6971 1351.2 39.0238 1342.31 36.0371C1328.65 31.4037 1333.2 19.0027 1341.56 19.332C1346.23 19.4456 1350.09 24.0335 1346.11 29.8933C1355.22 22.0235 1342.04 10.8262 1332.77 18.662C1326.58 23.8632 1326.89 34.3109 1336.07 39.7733C1358.29 52.8103 1377.38 26.3729 1404.1 31.6763C1410.03 32.8233 1415.71 35.2535 1419.59 36.3778Z" fill="#30A2FF"/>
</g>
<defs>
<clipPath id="clip0_250_10110">
<rect width="1440" height="75" fill="white"/>
</clipPath>
</defs>
</svg>
