<svg width="598" height="306" viewBox="0 0 598 306" fill="none" xmlns="http://www.w3.org/2000/svg">
<path d="M302.204 0L309.426 20.8941C311.397 26.5936 315.833 31.0998 321.501 33.1585L341.714 40.5L321.501 47.8415C315.833 49.9002 311.397 54.4065 309.426 60.1059L302.204 81L295.061 60.3375C293.046 54.5063 288.451 49.9318 282.612 47.9412L260.782 40.5L282.612 33.0588C288.451 31.0682 293.046 26.4937 295.061 20.6625L302.204 0Z" fill="white"/>
<path fill-rule="evenodd" clip-rule="evenodd" d="M137.65 152.753H165.57C164.488 142.789 165.7 122.86 179.205 122.86H286.988V178.705H241.537V207.948H361.657V178.705H316.206V122.86H416.847C423.123 122.427 437.105 128.951 432.43 153.904H460.35C462.298 138.81 457.103 101.268 429.833 96.8667C404.46 92.7721 249.762 92.9677 175.309 94.9172C162.756 96.0003 137.65 109.084 137.65 152.753Z" fill="white"/>
<path d="M0 264.439V253.57H42.2041V264.439H29.2182V304.721H14.2845V264.439H0Z" fill="white"/>
<path d="M95.4463 304.721H81.1618L103.887 253.57H114.276L136.352 304.721H120.769L107.783 275.309L95.4463 304.721Z" fill="white"/>
<path d="M186.997 306V253.57H201.281V292.573H221.409V306H186.997Z" fill="white"/>
<path d="M266.211 304.082L288.287 252.291H299.325L322.699 304.082H305.168L293.481 277.227L282.443 304.082H266.211Z" fill="white"/>
<path d="M399.316 267.636L405.16 259.964C402.562 254.848 392.174 252.291 384.382 252.291C376.591 252.291 367.501 258.045 367.501 270.194C367.501 282.342 394.122 286.179 392.174 291.933C390.615 296.537 379.837 292.999 374.643 290.655L367.501 299.606C378.539 304.934 401.783 311.371 406.458 294.491C412.302 273.391 383.084 274.67 384.382 267.636C385.421 262.01 394.771 265.292 399.316 267.636Z" fill="white"/>
<path d="M486.971 267.636L494.762 259.964C478.53 249.733 479.179 253.57 477.231 252.291C475.283 251.012 458.402 253.57 455.805 267.636C453.207 281.703 480.478 286.179 479.179 291.933C478.14 296.537 467.925 292.146 462.947 289.376L454.506 299.606C462.95 303.186 488.397 311.943 494.762 294.491C503.148 271.498 470.089 277.867 470.089 267.636C470.089 262.296 481.993 265.505 486.971 267.636Z" fill="white"/>
<path d="M541.511 303.442L564.237 252.291H574.625L598 303.442H580.469L569.431 275.948L557.094 303.442H541.511Z" fill="white"/>
</svg>
