<svg width="664" height="340" viewBox="0 0 664 340" fill="none" xmlns="http://www.w3.org/2000/svg">
<path d="M335.557 0L343.923 24.2163C345.892 29.916 350.327 34.4231 355.995 36.483L379.428 45L355.995 53.517C350.327 55.5769 345.892 60.084 343.923 65.7837L335.557 90L327.272 66.0155C325.257 60.1839 320.664 55.6084 314.825 53.6166L289.563 45L314.825 36.3834C320.664 34.3916 325.257 29.8161 327.272 23.9845L335.557 0Z" fill="white"/>
<path fill-rule="evenodd" clip-rule="evenodd" d="M152.843 169.725H183.844C182.642 158.654 183.988 136.511 198.984 136.511H318.663V198.561H268.196V231.053H401.572V198.561H351.106V136.511H462.854C469.823 136.03 485.347 143.278 480.157 171.005H511.158C513.321 154.234 507.553 112.52 477.273 107.63C449.1 103.08 277.328 103.297 194.658 105.463C180.72 106.667 152.843 121.204 152.843 169.725Z" fill="white"/>
<path d="M0 293.822V281.744H46.8621V293.822H32.443V338.579H15.861V293.822H0Z" fill="white"/>
<path d="M105.98 338.579H90.1194L115.353 281.744H126.888L151.401 338.579H134.098L119.679 305.899L105.98 338.579Z" fill="white"/>
<path d="M207.635 340V281.744H223.496V325.081H245.846V340H207.635Z" fill="white"/>
<path d="M295.592 337.869L320.104 280.323H332.36L358.315 337.869H338.849L325.872 308.03L313.616 337.869H295.592Z" fill="white"/>
<path d="M443.388 297.374L449.876 288.848C446.992 283.165 435.457 280.323 426.806 280.323C418.154 280.323 408.061 286.717 408.061 300.215C408.061 313.714 437.62 317.976 435.457 324.37C433.727 329.486 421.759 325.554 415.991 322.949L408.061 332.896C420.317 338.816 446.127 345.968 451.318 327.212C457.807 303.768 425.364 305.189 426.806 297.374C427.959 291.122 438.341 294.769 443.388 297.374Z" fill="white"/>
<path d="M540.717 297.374L549.368 288.848C531.344 277.481 532.065 281.744 529.902 280.323C527.739 278.902 508.995 281.744 506.111 297.374C503.227 313.003 533.507 317.976 532.065 324.37C530.912 329.486 519.569 324.607 514.041 321.529L504.669 332.896C514.045 336.874 542.3 346.603 549.368 327.212C558.68 301.664 521.972 308.741 521.972 297.374C521.972 291.44 535.189 295.006 540.717 297.374Z" fill="white"/>
<path d="M601.277 337.158L626.51 280.323H638.046L664 337.158H644.534L632.278 306.609L618.58 337.158H601.277Z" fill="white"/>
</svg>
